<svg width="90" height="89" viewBox="0 0 90 89" fill="none" xmlns="http://www.w3.org/2000/svg">
<path d="M43.0839 0.0462606C20.6466 0.775807 1.76661 18.8199 0.214769 41.091C-1.426 64.6531 15.5198 84.5631 37.9259 87.9102V55.9561H30.7492C27.521 55.9561 24.9064 53.3562 24.9064 50.1462C24.9064 46.9362 27.521 44.3364 30.7492 44.3364H37.9214V36.6032C37.9214 23.7985 44.1955 18.1788 54.8983 18.1788C56.4857 18.1788 57.8419 18.2142 58.9936 18.2717C61.8216 18.4087 64.0137 20.7521 64.0137 23.5686C64.0137 26.5001 61.6259 28.8744 58.6779 28.8744H56.7125C52.1682 28.8744 50.5807 33.1588 50.5807 37.9871V44.3408H58.8958C61.5237 44.3408 63.5335 46.6709 63.1333 49.2531L62.6531 52.3525C62.3285 54.4306 60.5321 55.9649 58.4155 55.9649H50.5807V88.0075C72.2932 85.076 89.0344 66.6207 89.0344 44.2391C89.0344 19.3284 68.318 -0.767294 43.0839 0.0462606Z" fill="black"/>
</svg>
