<svg width="121" height="121" viewBox="0 0 121 121" fill="none" xmlns="http://www.w3.org/2000/svg">
<path d="M40.2083 15C26.2883 15 15 26.2883 15 40.2083V80.5417C15 94.4617 26.2883 105.75 40.2083 105.75H80.5417C94.4617 105.75 105.75 94.4617 105.75 80.5417V40.2083C105.75 26.2883 94.4617 15 80.5417 15H40.2083ZM90.625 25.0833C93.408 25.0833 95.6667 27.342 95.6667 30.125C95.6667 32.908 93.408 35.1667 90.625 35.1667C87.842 35.1667 85.5833 32.908 85.5833 30.125C85.5833 27.342 87.842 25.0833 90.625 25.0833ZM60.375 35.1667C74.295 35.1667 85.5833 46.455 85.5833 60.375C85.5833 74.295 74.295 85.5833 60.375 85.5833C46.455 85.5833 35.1667 74.295 35.1667 60.375C35.1667 46.455 46.455 35.1667 60.375 35.1667ZM60.375 45.25C56.3636 45.25 52.5165 46.8435 49.68 49.68C46.8435 52.5165 45.25 56.3636 45.25 60.375C45.25 64.3864 46.8435 68.2335 49.68 71.07C52.5165 73.9065 56.3636 75.5 60.375 75.5C64.3864 75.5 68.2335 73.9065 71.07 71.07C73.9065 68.2335 75.5 64.3864 75.5 60.375C75.5 56.3636 73.9065 52.5165 71.07 49.68C68.2335 46.8435 64.3864 45.25 60.375 45.25Z" fill="#F9F9F9"/>
</svg>
