<svg width="91" height="91" viewBox="0 0 91 91" fill="none" xmlns="http://www.w3.org/2000/svg">
<path d="M25.2083 0C11.2883 0 0 11.2883 0 25.2083V65.5417C0 79.4617 11.2883 90.75 25.2083 90.75H65.5417C79.4617 90.75 90.75 79.4617 90.75 65.5417V25.2083C90.75 11.2883 79.4617 0 65.5417 0H25.2083ZM75.625 10.0833C78.408 10.0833 80.6667 12.342 80.6667 15.125C80.6667 17.908 78.408 20.1667 75.625 20.1667C72.842 20.1667 70.5833 17.908 70.5833 15.125C70.5833 12.342 72.842 10.0833 75.625 10.0833ZM45.375 20.1667C59.295 20.1667 70.5833 31.455 70.5833 45.375C70.5833 59.295 59.295 70.5833 45.375 70.5833C31.455 70.5833 20.1667 59.295 20.1667 45.375C20.1667 31.455 31.455 20.1667 45.375 20.1667ZM45.375 30.25C41.3636 30.25 37.5165 31.8435 34.68 34.68C31.8435 37.5165 30.25 41.3636 30.25 45.375C30.25 49.3864 31.8435 53.2335 34.68 56.07C37.5165 58.9065 41.3636 60.5 45.375 60.5C49.3864 60.5 53.2335 58.9065 56.07 56.07C58.9065 53.2335 60.5 49.3864 60.5 45.375C60.5 41.3636 58.9065 37.5165 56.07 34.68C53.2335 31.8435 49.3864 30.25 45.375 30.25Z" fill="black"/>
</svg>
