<svg width="226" height="226" viewBox="0 0 226 226" fill="none" xmlns="http://www.w3.org/2000/svg">
<rect width="226" height="226" rx="113" fill="black"/>
<path d="M147.086 137.033H87.347C87.0996 137.034 86.8606 136.942 86.6767 136.776C86.4929 136.609 86.3773 136.38 86.3527 136.132L80.2258 79.6682C80.2099 79.5286 80.2229 79.3871 80.264 79.2527C80.3051 79.1184 80.3735 78.9941 80.4647 78.8876C80.5551 78.7801 80.6679 78.6939 80.7951 78.6352C80.9223 78.5764 81.0608 78.5465 81.2008 78.5475H153.193C153.333 78.5465 153.472 78.5764 153.599 78.6352C153.726 78.6939 153.839 78.7801 153.929 78.8876C154.021 78.9941 154.089 79.1184 154.13 79.2527C154.171 79.3871 154.184 79.5286 154.168 79.6682L148.041 136.132C148.032 136.378 147.927 136.611 147.748 136.78C147.569 136.949 147.331 137.039 147.086 137.033V137.033ZM88.2424 135.032H146.191L152.099 80.5691H82.334L88.2424 135.032Z" fill="#F1F4F5"/>
<path d="M152.223 79.4522L146.092 135.922L148.069 136.139L154.201 79.6695L152.223 79.4522Z" fill="#F1F4F5"/>
<path d="M134.649 79.5154L131.564 135.975L133.55 136.085L136.635 79.6253L134.649 79.5154Z" fill="#F1F4F5"/>
<path d="M118.619 79.5682H116.63V136.032H118.619V79.5682Z" fill="#F1F4F5"/>
<path d="M99.8143 79.5146L97.8279 79.6237L100.89 136.082L102.877 135.973L99.8143 79.5146Z" fill="#F1F4F5"/>
<path d="M99.8975 80.9706L97.9109 81.0759L98.1097 84.8735L100.096 84.7682L99.8975 80.9706Z" fill="#77879D"/>
<path d="M82.2073 79.4722L80.2297 79.6894L86.3555 136.158L88.3331 135.941L82.2073 79.4722Z" fill="#F1F4F5"/>
<path d="M152.092 80.9083L151.813 83.4147L153.79 83.6374L154.069 81.1311L152.092 80.9083Z" fill="#77879D"/>
<path d="M134.557 80.9802L134.379 84.0773L136.365 84.1932L136.543 81.0961L134.557 80.9802Z" fill="#77879D"/>
<path d="M118.619 81.0293H116.63V85.0925H118.619V81.0293Z" fill="#77879D"/>
<path d="M82.3681 80.9158L80.3901 81.1298L80.8473 85.4087L82.8253 85.1947L82.3681 80.9158Z" fill="#77879D"/>
<path d="M155.321 81.5698H55.4583C54.9307 81.5698 54.4247 81.3589 54.0517 80.9835C53.6786 80.6081 53.469 80.099 53.469 79.5682C53.469 79.0373 53.6786 78.5282 54.0517 78.1528C54.4247 77.7775 54.9307 77.5666 55.4583 77.5666H155.321C155.849 77.5666 156.355 77.7775 156.728 78.1528C157.101 78.5282 157.311 79.0373 157.311 79.5682C157.311 80.099 157.101 80.6081 156.728 80.9835C156.355 81.3589 155.849 81.5698 155.321 81.5698V81.5698Z" fill="#F1F4F5"/>
<path d="M151.681 92.6785H82.7515V94.6801H151.681V92.6785Z" fill="#F1F4F5"/>
<path d="M150.15 106.789H84.2834V108.791H150.15V106.789Z" fill="#F1F4F5"/>
<path d="M148.618 120.92H85.8152V122.922H148.618V120.92Z" fill="#F1F4F5"/>
<path d="M155.321 144.719C154.794 144.717 154.29 144.505 153.917 144.131C153.545 143.756 153.335 143.248 153.333 142.718C153.331 141.476 152.84 140.286 151.968 139.408C151.095 138.53 149.912 138.036 148.678 138.034H87.3468C86.8192 138.034 86.3132 137.823 85.9401 137.448C85.567 137.073 85.3574 136.564 85.3574 136.033C85.3574 135.502 85.567 134.993 85.9401 134.617C86.3132 134.242 86.8192 134.031 87.3468 134.031H148.677C150.965 134.036 153.158 134.953 154.776 136.581C156.394 138.209 157.305 140.415 157.31 142.717C157.308 143.247 157.098 143.755 156.726 144.13C156.353 144.505 155.848 144.717 155.321 144.719V144.719Z" fill="#F1F4F5"/>
<path d="M71.7704 79.7283C71.7734 80.1629 71.6905 80.5937 71.5266 80.9957C71.3627 81.3977 71.121 81.763 70.8156 82.0703C70.5102 82.3776 70.1472 82.6207 69.7476 82.7856C69.348 82.9506 68.9199 83.0339 68.488 83.031H52.7924C52.1406 83.0354 51.5022 82.8442 50.9588 82.4817C50.4155 82.1193 49.9919 81.6021 49.7421 80.9962C49.4923 80.3904 49.4278 79.7234 49.5566 79.0804C49.6855 78.4374 50.002 77.8477 50.4656 77.3866C50.7708 77.0793 51.1337 76.8362 51.5332 76.6712C51.9326 76.5063 52.3607 76.4228 52.7924 76.4257H68.488C68.9199 76.4227 69.348 76.5061 69.7476 76.6711C70.1471 76.836 70.5102 77.0792 70.8156 77.3864C71.1209 77.6937 71.3626 78.0589 71.5265 78.461C71.6905 78.863 71.7734 79.2938 71.7704 79.7283V79.7283Z" fill="#F1F4F5"/>
<path d="M63.0578 79.7282C63.0546 80.6066 62.7051 81.4479 62.0859 82.0671C61.4667 82.6864 60.6285 83.033 59.7554 83.0308H51.1617C50.5097 83.0354 49.8712 82.8443 49.3277 82.482C48.7843 82.1196 48.3605 81.6024 48.1107 80.9965C47.8608 80.3906 47.7962 79.7235 47.925 79.0805C48.0538 78.4374 48.3703 77.8477 48.834 77.3865C49.1394 77.0792 49.5024 76.8359 49.902 76.671C50.3016 76.506 50.7298 76.4226 51.1617 76.4256H59.7554C60.1888 76.4205 60.6188 76.5024 61.0204 76.6663C61.4221 76.8303 61.7872 77.073 62.0946 77.3804C62.402 77.6879 62.6455 78.0538 62.8108 78.4569C62.9762 78.86 63.0601 79.2921 63.0578 79.7282Z" fill="#D13333"/>
<path d="M148.677 151.404H83.766C83.2384 151.404 82.7324 151.193 82.3593 150.818C81.9862 150.442 81.7766 149.933 81.7766 149.402C81.7766 148.871 81.9862 148.362 82.3593 147.987C82.7324 147.612 83.2384 147.401 83.766 147.401H148.677C149.911 147.399 151.095 146.905 151.967 146.027C152.84 145.149 153.331 143.959 153.333 142.717C153.333 142.186 153.542 141.677 153.915 141.302C154.288 140.927 154.794 140.716 155.322 140.716C155.85 140.716 156.356 140.927 156.729 141.302C157.102 141.677 157.311 142.186 157.311 142.717C157.307 145.02 156.395 147.227 154.777 148.855C153.159 150.483 150.966 151.399 148.677 151.404V151.404Z" fill="#D13333"/>
<path d="M141.396 163.433C139.858 163.433 138.354 162.973 137.075 162.114C135.796 161.254 134.799 160.031 134.21 158.601C133.622 157.171 133.468 155.598 133.768 154.08C134.068 152.562 134.809 151.167 135.897 150.073C136.984 148.978 138.37 148.233 139.879 147.931C141.388 147.629 142.952 147.784 144.373 148.376C145.794 148.969 147.009 149.972 147.864 151.259C148.719 152.546 149.175 154.059 149.175 155.607C149.175 156.634 148.974 157.652 148.583 158.602C148.192 159.551 147.619 160.414 146.897 161.141C146.175 161.868 145.317 162.444 144.373 162.837C143.429 163.231 142.418 163.433 141.396 163.433V163.433ZM141.396 151.784C140.645 151.784 139.91 152.008 139.286 152.428C138.661 152.848 138.174 153.445 137.886 154.144C137.599 154.842 137.524 155.611 137.67 156.353C137.817 157.094 138.179 157.775 138.71 158.31C139.241 158.844 139.918 159.208 140.655 159.356C141.392 159.503 142.156 159.428 142.851 159.138C143.545 158.849 144.138 158.359 144.556 157.73C144.973 157.102 145.196 156.363 145.196 155.607C145.193 154.594 144.791 153.623 144.079 152.907C143.367 152.191 142.403 151.787 141.396 151.784V151.784Z" fill="#D13333"/>
<path d="M96.0997 163.433C94.5613 163.433 93.0575 162.974 91.7784 162.114C90.4993 161.254 89.5023 160.031 88.9136 158.601C88.3249 157.171 88.1709 155.598 88.471 154.08C88.7711 152.562 89.5119 151.167 90.5997 150.073C91.6875 148.978 93.0734 148.233 94.5823 147.931C96.0911 147.629 97.655 147.784 99.0763 148.376C100.498 148.969 101.712 149.972 102.567 151.259C103.422 152.546 103.878 154.059 103.878 155.607C103.878 156.634 103.677 157.652 103.286 158.602C102.895 159.551 102.322 160.414 101.6 161.141C100.878 161.868 100.02 162.444 99.0765 162.837C98.1327 163.23 97.1212 163.433 96.0997 163.433V163.433ZM96.0997 151.784C95.3482 151.784 94.6137 152.008 93.9888 152.428C93.364 152.848 92.877 153.445 92.5895 154.144C92.3019 154.842 92.2266 155.611 92.3732 156.352C92.5198 157.094 92.8817 157.775 93.4131 158.31C93.9444 158.844 94.6214 159.208 95.3585 159.356C96.0955 159.503 96.8594 159.428 97.5537 159.138C98.248 158.849 98.8413 158.359 99.2588 157.73C99.6763 157.102 99.8992 156.363 99.8992 155.607C99.8957 154.594 99.4943 153.624 98.7825 152.907C98.0707 152.191 97.1063 151.788 96.0997 151.784V151.784Z" fill="#D13333"/>
</svg>
