<svg width="125" height="125" viewBox="0 0 125 125" fill="none" xmlns="http://www.w3.org/2000/svg">
<g clip-path="url(#clip0)">
<path d="M125.337 13.4208C121.35 15.1917 117.067 16.3833 112.571 16.9208C117.162 14.1708 120.683 9.81667 122.342 4.625C118.05 7.17083 113.292 9.02083 108.225 10.0208C104.171 5.7 98.3958 3 92.0042 3C79.7292 3 69.7792 12.9542 69.7792 25.225C69.7792 26.9667 69.9792 28.6667 70.3542 30.2875C51.8833 29.3625 35.5083 20.5125 24.5417 7.0625C22.6333 10.3458 21.5375 14.1625 21.5375 18.2417C21.5375 25.95 25.4583 32.7542 31.4208 36.7375C27.7792 36.6208 24.35 35.6208 21.3542 33.9583C21.3542 34.0542 21.3542 34.1417 21.3542 34.2375C21.3542 45.0083 29.0125 53.9917 39.1833 56.0292C37.3208 56.5375 35.3542 56.8083 33.325 56.8083C31.8958 56.8083 30.5 56.6667 29.1458 56.4125C31.975 65.2417 40.1833 71.6708 49.9083 71.85C42.3042 77.8125 32.7208 81.3667 22.3042 81.3667C20.5125 81.3667 18.7417 81.2625 17 81.0542C26.8375 87.3583 38.5167 91.0375 51.0708 91.0375C91.9542 91.0375 114.304 57.1708 114.304 27.8C114.304 26.8375 114.283 25.8792 114.242 24.925C118.587 21.7875 122.358 17.875 125.337 13.4208Z" fill="#F9F9F9"/>
</g>
<defs>
<clipPath id="clip0">
<rect width="125" height="125" fill="white"/>
</clipPath>
</defs>
</svg>
